<?xml version="1.0" encoding="UTF-8" standalone="no"?>
<svg width="390" height="844" viewBox="0 0 390 844" fill="none" xmlns="http://www.w3.org/2000/svg">
  <!-- 背景 -->
  <rect width="390" height="844" fill="white"/>
  
  <!-- ステータスバー -->
  <rect width="390" height="44" fill="white"/>
  <text x="40" y="27" font-family="SF Pro Text" font-size="16" fill="black">9:41</text>
  <text x="340" y="27" font-family="SF Pro Text" font-size="16" fill="black">●●●</text>
  
  <!-- ロゴセクション -->
  <circle cx="195" cy="180" r="80" fill="#006838"/>
  <circle cx="195" cy="180" r="70" fill="#8DC63F"/>
  
  <!-- カエルの顔の簡略版 -->
  <circle cx="165" cy="160" r="15" fill="#006838"/>
  <circle cx="225" cy="160" r="15" fill="#006838"/>
  <circle cx="155" cy="190" r="15" fill="#FFCCD0"/>
  <circle cx="235" cy="190" r="15" fill="#FFCCD0"/>
  <path d="M175 210C175 210 195 225 215 210" stroke="#006838" stroke-width="8" stroke-linecap="round"/>
  
  <!-- 医療マーク -->
  <rect x="185" cy="225" width="20" height="20" fill="white"/>
  <rect x="190" cy="220" width="10" height="30" fill="#F7941D"/>
  <rect x="180" cy="230" width="30" height="10" fill="#F7941D"/>
  
  <!-- HugMeDoテキスト -->
  <text x="75" y="320" font-family="Arial" font-size="40" font-weight="bold">
    <tspan fill="#00A651">H</tspan>
    <tspan fill="#00A651">u</tspan>
    <tspan fill="#F7941D">g</tspan>
    <tspan fill="#00A651">M</tspan>
    <tspan fill="#00A651">e</tspan>
    <tspan fill="#00A651">D</tspan>
    <tspan fill="#F7941D">o</tspan>
  </text>
  
  <!-- 笑顔の線 -->
  <path d="M150 330C150 330 195 350 240 330" stroke="#F7941D" stroke-width="3" stroke-linecap="round"/>
  
  <!-- 装飾 -->
  <path d="M145 290C145 290 150 280 155 275" stroke="#8DC63F" stroke-width="3" stroke-linecap="round"/>
  <path d="M135 285C135 285 140 275 145 270" stroke="#8DC63F" stroke-width="3" stroke-linecap="round"/>
  
  <path d="M235 290C235 290 240 280 245 275" stroke="#8DC63F" stroke-width="3" stroke-linecap="round"/>
  <path d="M245 285C245 285 250 275 255 270" stroke="#8DC63F" stroke-width="3" stroke-linecap="round"/>
  
  <!-- 入力フォーム -->
  <rect x="45" y="380" width="300" height="50" rx="5" ry="5" stroke="#CCCCCC" stroke-width="1" fill="white"/>
  <text x="55" y="410" font-family="Noto Sans JP" font-size="12" fill="#999999">********</text>
  <text x="55" y="440" font-family="Noto Sans JP" font-size="12" fill="#999999">ログインID</text>
  <text x="320" y="410" font-family="Arial" font-size="16" fill="#999999">👁️</text>
  
  <rect x="45" y="450" width="300" height="50" rx="5" ry="5" stroke="#CCCCCC" stroke-width="1" fill="white"/>
  <text x="55" y="480" font-family="Noto Sans JP" font-size="12" fill="#999999">********</text>
  <text x="55" y="510" font-family="Noto Sans JP" font-size="12" fill="#999999">パスワード</text>
  <text x="320" y="480" font-family="Arial" font-size="16" fill="#999999">👁️</text>
  
  <!-- チェックボックス -->
  <rect x="45" y="520" width="20" height="20" rx="3" ry="3" stroke="#CCCCCC" stroke-width="1" fill="white"/>
  <text x="75" y="535" font-family="Noto Sans JP" font-size="14" fill="#666666">パスワードを保存する</text>
  <path d="M50 530L55 535L65 525" stroke="#00A651" stroke-width="2" stroke-linecap="round"/>
  
  <!-- ログインボタン -->
  <rect x="45" y="570" width="300" height="50" rx="5" ry="5" fill="#00A651"/>
  <text x="165" y="600" font-family="Noto Sans JP" font-size="16" fill="white" text-anchor="middle">ログイン</text>
  
  <!-- 補助リンク -->
  <text x="145" y="650" font-family="Noto Sans JP" font-size="14" fill="#666666">ログインでお困りの方は</text>
  <text x="275" y="650" font-family="Noto Sans JP" font-size="14" fill="#00A651">こちら</text>
</svg>
