<?xml version="1.0" encoding="UTF-8" standalone="no"?>
<!-- Created with Inkscape (http://www.inkscape.org/) -->

<svg
   width="352.77762mm"
   height="272.31808mm"
   viewBox="0 0 352.77762 272.31808"
   version="1.1"
   id="svg1"
   xmlns:inkscape="http://www.inkscape.org/namespaces/inkscape"
   xmlns:sodipodi="http://sodipodi.sourceforge.net/DTD/sodipodi-0.dtd"
   xmlns="http://www.w3.org/2000/svg"
   xmlns:svg="http://www.w3.org/2000/svg">
  <sodipodi:namedview
     id="namedview1"
     pagecolor="#ffffff"
     bordercolor="#000000"
     borderopacity="0.25"
     inkscape:showpageshadow="2"
     inkscape:pageopacity="0.0"
     inkscape:pagecheckerboard="0"
     inkscape:deskcolor="#d1d1d1"
     inkscape:document-units="mm"
     inkscape:export-bgcolor="#00000000">
    <inkscape:page
       x="0"
       y="0"
       width="352.77762"
       height="272.31805"
       id="page2"
       margin="0"
       bleed="0" />
  </sodipodi:namedview>
  <defs
     id="defs1">
    <clipPath
       clipPathUnits="userSpaceOnUse"
       id="clipPath4-2">
      <path
         d="M 39,140.083 H 1041 V 914.0081 H 39 Z"
         id="path4-3" />
    </clipPath>
    <clipPath
       clipPathUnits="userSpaceOnUse"
       id="clipPath6-9">
      <path
         d="M 76.32412,180.4503 H 1003.6759 V 868.0236 H 76.32412 Z"
         id="path6-9" />
    </clipPath>
    <clipPath
       clipPathUnits="userSpaceOnUse"
       id="clipPath8-7">
      <path
         d="M 260.1174,535.7985 H 374.5176 V 650.1987 H 260.1174 Z"
         id="path8-0" />
    </clipPath>
    <clipPath
       clipPathUnits="userSpaceOnUse"
       id="clipPath10-3">
      <path
         d="M 705.4824,535.7985 H 819.8826 V 650.1987 H 705.4824 Z"
         id="path10-9" />
    </clipPath>
    <clipPath
       clipPathUnits="userSpaceOnUse"
       id="clipPath12-8">
      <path
         d="M 447.9248,205.5843 H 632.0753 V 331.4295 H 447.9248 Z"
         id="path12-6" />
    </clipPath>
    <clipPath
       clipPathUnits="userSpaceOnUse"
       id="clipPath14-5">
      <path
         d="m 501.6211,237.4896 h 76.75787 v 76.75787 H 501.6211 Z"
         id="path14-7" />
    </clipPath>
  </defs>
  <g
     inkscape:label="Layer 1"
     inkscape:groupmode="layer"
     id="layer1"
     transform="translate(62.138628,-12.309775)">
    <g
       id="g2"
       transform="matrix(0.26458333,0,0,0.26458333,-76.249738,-46.601228)">
      <g
         id="g3">
        <path
           id="path3"
           d="m 333.4646,913.0082 c -39.3673,0 -78.7346,-15.0119 -108.7707,-45.048 C 176.7294,819.9954 167.2024,748.2814 195.8328,690.7249 184.8177,662.6246 179.6202,633.4418 179.8509,604.288 87.20382,593.0757 26.76866,515.1337 42.48256,421.4619 49.95119,376.9407 73.40903,336.4182 106.2346,305.1101 91.26875,293.189 74.97192,276.1669 64.34792,261.0867 c -0.5885,-0.8276 -1.13627,-1.6755 -1.69771,-2.5173 -0.81591,-1.2156 -1.72971,-2.4809 -2.45876,-3.6589 -2.05632,-3.3235 -3.49311,-6.1638 -4.56626,-8.6935 -0.30015,-0.7075 -0.62203,-1.433 -0.84885,-2.0782 -15.62454,-36.1552 0.04885,-70.5569 38.02289,-82.4854 0.01982,-0.006 0.03871,-0.0235 0.05855,-0.0293 6.62714,-2.9551 21.31342,-5.3098 44.28682,-6.6737 50.4328,-2.9949 124.9204,-0.2315 185.3141,6.1761 45.9718,-27.1472 118.4824,-26.7368 163.5365,1.3465 4.4086,2.748 8.2652,5.7071 11.8255,8.752 13.4842,-3.6334 27.83,-5.2902 42.1793,-5.298 14.3492,0.008 28.6951,1.6646 42.1794,5.298 3.5602,-3.045 7.4168,-6.0041 11.8254,-8.752 45.0542,-28.0833 117.5647,-28.4939 163.5365,-1.3465 60.3938,-6.4077 134.8812,-9.171 185.3141,-6.1761 22.9734,1.3639 37.6597,3.7187 44.2868,6.6737 0.0198,0.006 0.0388,0.023 0.0586,0.0293 37.9742,11.9287 53.6472,46.3302 38.0232,82.4854 -0.227,0.6452 -0.549,1.3707 -0.849,2.0782 -1.073,2.5298 -2.51,5.3699 -4.566,8.6935 -0.729,1.178 -1.643,2.4433 -2.459,3.6589 -0.561,0.8417 -1.109,1.6896 -1.698,2.5173 -10.624,15.0804 -26.9207,32.1022 -41.8866,44.0234 32.8256,31.3081 56.2836,71.8306 63.7516,116.3518 15.714,93.6718 -44.7207,171.6138 -137.3679,182.8261 0.2307,29.1538 -4.9668,58.3366 -15.9819,86.4369 28.6304,57.5565 19.1035,129.2705 -28.8611,177.2353 -30.0361,30.0361 -69.4032,45.048 -108.7706,45.048 -39.3673,-10e-5 -78.7345,-15.0119 -108.7707,-45.048 -3.5917,-3.5916 -6.9371,-7.3388 -10.0985,-11.1814 -27.0784,10.1555 -57.3687,15.2447 -87.6663,15.2501 -30.2976,-0.005 -60.5879,-5.0946 -87.6663,-15.2501 -3.1613,3.8426 -6.5068,7.5898 -10.0985,11.1814 -30.0361,30.0361 -69.4034,45.0479 -108.7706,45.048 z M 199.6673,512.7579 c 0.6506,-1.4856 1.2785,-2.9706 1.9611,-4.4492 -0.6709,1.4799 -1.3233,2.9624 -1.9611,4.4492 z m 680.6654,0 c -0.6378,-1.4868 -1.2902,-2.9693 -1.9611,-4.4492 0.6827,1.4786 1.3105,2.9636 1.9611,4.4492 z M 205.4629,500.2885 c 2.4735,-4.8916 5.0139,-9.7782 7.8446,-14.577 3.4311,-5.8164 7.1083,-11.5513 11.0644,-17.2112 -3.9411,5.6621 -7.6642,11.3952 -11.0644,17.2112 -2.8122,4.8104 -5.402,9.6755 -7.8446,14.577 z m 669.0742,0 c -2.4426,-4.9015 -5.0324,-9.7666 -7.8446,-14.577 -3.4002,-5.816 -7.1233,-11.5491 -11.0644,-17.2112 3.9561,5.6599 7.6333,11.3947 11.0644,17.2112 2.8308,4.7988 5.3712,9.6854 7.8446,14.577 z m -649.931,-32.081 c 11.7198,-16.7183 25.7549,-32.6893 42.0623,-47.653 -16.3863,14.9731 -30.3996,30.9473 -42.0623,47.653 z m 630.7878,0 c -11.6626,-16.7057 -25.676,-32.6799 -42.0622,-47.653 16.3073,14.9637 30.3424,30.9347 42.0622,47.653 z M 268.8052,418.6519 c 4.4931,-4.0497 9.1874,-8.0224 14.0207,-11.9132 -4.8554,3.8866 -9.5146,7.8697 -14.0207,11.9132 z m 542.3897,0 c -4.5061,-4.0435 -9.1654,-8.0266 -14.0208,-11.9132 4.8333,3.8908 9.5277,7.8635 14.0208,11.9132 z M 286.3677,403.8701 c 0.8842,-0.6923 1.8019,-1.3361 2.6929,-2.0197 -0.5509,0.4201 -1.1495,0.7767 -1.6977,1.2001 -0.3445,0.266 -0.6524,0.5528 -0.9952,0.8196 z m 507.2646,0 c -0.3428,-0.2668 -0.6507,-0.5536 -0.9952,-0.8196 -0.5482,-0.4234 -1.1468,-0.78 -1.6977,-1.2001 0.891,0.6836 1.8087,1.3274 2.6929,2.0197 z"
           style="fill:#024f28;fill-opacity:1;fill-rule:nonzero;stroke:none"
           transform="matrix(1.3333333,0,0,-1.3333333,0,1440)"
           clip-path="url(#clipPath4-2)" />
      </g>
      <g
         id="g4">
        <path
           id="path5"
           d="m 337.5332,867.0236 c -27.6036,0 -55.1926,-10.5252 -76.2507,-31.5833 -38.0532,-38.0532 -41.5998,-97.4158 -10.8887,-139.5929 -42.7048,-72.588 -32.764,-164.0275 34.7445,-234.6063 39.0534,-40.8296 91.2147,-68.1679 147.0277,-80.9633 34.3013,-8.6132 71.0676,-12.9085 107.834,-12.9085 36.7664,0 73.5327,4.2953 107.834,12.9085 55.8131,12.7954 107.9744,40.1337 147.0277,80.9633 67.5085,70.5787 77.4494,162.0183 34.7446,234.6063 30.711,42.1771 27.1639,101.5397 -10.8888,139.5929 -21.0581,21.0581 -48.6469,31.5833 -76.2507,31.5833 -27.6036,0 -55.2217,-10.5253 -76.2799,-31.5833 -9.3534,-9.3534 -16.4909,-20.0463 -21.6898,-31.4077 -2.6622,1.7172 -5.4568,3.395 -8.4593,5.0053 -26.5192,14.2245 -61.2785,21.3385 -96.0378,21.3385 -34.7593,0 -69.5187,-7.1141 -96.0378,-21.3385 -3.0022,-1.6103 -5.797,-3.2881 -8.4593,-5.0053 -5.1989,11.3614 -12.3363,22.0543 -21.6897,31.4077 -21.0582,21.0581 -48.6763,31.5833 -76.28,31.5833 z m -2.0197,-63.0203 c 11.9857,0 23.9605,-4.5832 33.1054,-13.728 18.2894,-18.2896 18.2896,-47.9505 0,-66.2401 -18.2897,-18.2895 -47.9212,-18.2895 -66.2108,0 -18.2894,18.2896 -18.2896,47.9505 0,66.2401 9.1449,9.1448 21.1197,13.728 33.1054,13.728 z m 408.973,0 c 11.9858,0 23.9606,-4.5832 33.1054,-13.728 18.2896,-18.2896 18.2893,-47.9505 0,-66.2401 -18.2896,-18.2896 -47.9211,-18.2895 -66.2108,0 -18.2896,18.2896 -18.2894,47.9505 0,66.2401 9.1448,9.1448 21.1198,13.728 33.1054,13.728 z M 463.7493,599.8681 c 2.751,-0.0592 5.4947,-0.5603 8.1373,-1.5221 0.971,-0.2864 2.2092,-0.9356 3.5418,-1.7855 l 14.9867,-11.3864 v 0.0585 c 11.1008,-7.87 23.4366,-13.6734 35.9154,-16.3624 3.8837,-1.1007 8.7591,-1.6684 13.6695,-1.6684 4.9104,-1e-4 9.7859,0.5677 13.6695,1.6684 12.4789,2.689 24.8147,8.4924 35.9154,16.3624 v -0.0585 l 14.9867,11.3864 c 1.3326,0.8499 2.5708,1.4991 3.5418,1.7855 2.6426,0.9618 5.3864,1.4629 8.1373,1.5221 0.917,0.0197 1.8395,-0.008 2.7515,-0.0878 3.6479,-0.3192 7.2316,-1.4034 10.4789,-3.2784 2.5628,-1.4783 4.8578,-3.4389 6.7616,-5.7078 1.9037,-2.2688 3.409,-4.859 4.4199,-7.6397 2.5649,-7.0471 1.8764,-14.8733 -1.8733,-21.3678 -1.3911,-2.7981 -6.537,-7.4745 -10.3619,-10.6838 -2.5431,-2.1339 -5.7775,-4.6502 -8.5764,-6.4104 -14.7487,-10.9698 -31.3935,-19.2524 -48.7068,-24.0021 -3.8366,-1.1184 -7.7486,-2.0303 -11.7376,-2.7222 -6.1432,-1.2389 -12.7825,-1.8106 -19.4066,-1.8148 -6.624,0.004 -13.2634,0.5759 -19.4066,1.8148 -3.989,0.692 -7.9011,1.6039 -11.7376,2.7222 -17.3132,4.7497 -33.9581,13.0323 -48.7068,24.0021 -2.7988,1.7602 -6.0332,4.2765 -8.5764,6.4104 -3.8249,3.2093 -8.9708,7.8857 -10.3619,10.6838 -3.7496,6.4946 -4.4383,14.3207 -1.8733,21.3678 1.0109,2.7807 2.5162,5.3709 4.4199,7.6397 1.9039,2.2689 4.1988,4.2295 6.7616,5.7078 3.2473,1.875 6.831,2.9592 10.479,3.2784 0.912,0.0798 1.8345,0.1075 2.7514,0.0878 z M 183.3634,566.3236 C 111.679,554.8509 66.3573,496.9772 79.62733,427.1112 92.77288,357.9003 158.9216,300.6727 234.0313,288.7477 c -0.0272,0.5682 -0.0812,1.1515 -0.1171,1.727 -5.4437,39.8447 2.494,82.7779 23.7387,113.6589 3.6708,5.3357 7.6714,9.8269 11.7962,13.9622 -41.9998,37.6564 -69.1246,81.951 -81.6365,128.2651 -1.7884,6.6198 -3.2627,13.2752 -4.4492,19.9627 z m 713.2732,0 c -1.1865,-6.6875 -2.6608,-13.3429 -4.4491,-19.9627 -12.512,-46.3141 -39.6368,-90.6087 -81.6366,-128.2651 4.1248,-4.1353 8.1254,-8.6265 11.7962,-13.9622 21.2447,-30.881 29.1825,-73.8142 23.7387,-113.6589 -0.0359,-0.5754 -0.0899,-1.1589 -0.1171,-1.727 75.1097,11.925 141.2583,69.1522 154.4043,138.3635 13.27,69.866 -32.052,127.7398 -103.7364,139.2124 z M 302.5838,391.9569 c -36.7363,-51.5985 -33.0055,-125.1224 11.4742,-172.0836 25.7703,-27.208 59.989,-39.9009 93.7254,-38.2864 0.8692,0.0378 1.7235,0.0565 2.6051,0.1171 2.2728,0.1586 4.527,0.4131 6.7908,0.7025 0.4915,0.0634 0.9705,0.1057 1.4636,0.1756 2.8916,0.4059 5.7704,0.9029 8.6349,1.5221 2.0483,0.4429 4.0882,0.97 6.1176,1.5221 3.9416,1.043 7.8303,2.193 11.4742,3.5711 2.2508,0.8249 4.2951,1.7699 6.3518,2.7222 0.5802,0.2696 1.1633,0.5411 1.727,0.8196 0.9194,0.4561 1.9723,0.8327 2.8392,1.3171 0.7671,0.4282 1.2605,0.8811 1.9612,1.3172 0.4938,0.2939 1.0773,0.5482 1.5513,0.8489 1.0124,0.6427 1.7312,1.2877 2.6052,1.9319 0.2761,0.2188 0.6168,0.424 0.8781,0.6439 2.574,1.9989 4.5713,3.9927 5.8249,5.9127 0.6709,0.8114 1.1215,1.7907 1.4343,2.8979 0.0891,0.2794 0.1457,0.5443 0.2049,0.8196 0.8072,4.2465 -0.7396,10.3212 -5.0639,17.8845 -4.6937,8.2091 -12.003,16.7949 -20.314,24.7339 l -14.5184,14.8989 -1.6099,2.0782 c -1.6645,1.8548 -3.2741,3.8255 -4.8004,6.0298 -12.4518,17.9797 -16.7231,43.1511 -13.0841,66.2401 -38.7788,11.7427 -75.5101,28.9477 -108.273,51.6631 z m 474.8325,0 c -32.7629,-22.7152 -69.4942,-39.9204 -108.2731,-51.6631 3.639,-23.0889 -0.6323,-48.2604 -13.0841,-66.2401 -1.5263,-2.2042 -3.1359,-4.1751 -4.8004,-6.0298 l -1.6099,-2.0782 -14.5184,-14.8989 c -8.311,-7.9389 -15.6202,-16.5248 -20.314,-24.7339 -4.3242,-7.5633 -5.8711,-13.6381 -5.0638,-17.8845 0.0592,-0.275 0.1157,-0.5401 0.2049,-0.8196 0.3128,-1.1072 0.7633,-2.0865 1.4342,-2.8979 1.2536,-1.92 3.2509,-3.9138 5.8249,-5.9127 0.2614,-0.2199 0.602,-0.4251 0.8782,-0.6439 0.8739,-0.6437 1.5927,-1.2892 2.6051,-1.9319 0.474,-0.3009 1.0575,-0.5549 1.5513,-0.8489 0.7008,-0.4361 1.1941,-0.889 1.9612,-1.3172 0.867,-0.4839 1.9198,-0.861 2.8393,-1.3171 0.5637,-0.2785 1.1467,-0.55 1.7269,-0.8196 2.0567,-0.9524 4.1011,-1.8972 6.3518,-2.7222 3.644,-1.3782 7.5327,-2.5281 11.4742,-3.5711 2.0294,-0.5521 4.0693,-1.0793 6.1176,-1.5221 2.8646,-0.6193 5.7433,-1.1162 8.635,-1.5221 0.4928,-0.0698 0.972,-0.1122 1.4635,-0.1756 2.2636,-0.2891 4.518,-0.5439 6.7908,-0.7025 0.8816,-0.0606 1.7359,-0.0793 2.6052,-0.1171 33.7362,-1.6146 67.9551,11.0784 93.7254,38.2864 44.4797,46.9612 48.2105,120.485 11.4742,172.0836 z M 147.7114,275.0782 c -1.0282,-0.5221 -1.9776,-0.9323 -3.1319,-1.6099 -15.6386,-9.1811 -36.5188,-28.9385 -46.62859,-44.1405 -3.99271,-6.0038 -5.61629,-10.2966 -5.26876,-12.8499 0.29417,-5.0909 7.56685,-9.474 20.48965,-11.8255 4.3408,-0.915 9.2883,-1.7846 15.455,-2.5758 40.4705,-5.1914 105.1693,-5.3055 147.0277,-0.4098 -14.2144,16.0193 -25.7365,33.9145 -33.0761,52.1314 -31.694,-2.0651 -66.322,4.231 -90.1251,18.2358 -1.695,0.9973 -3.2186,2.0091 -4.7419,3.0442 z m 784.5772,0 c -1.5232,-1.0351 -3.0469,-2.0469 -4.7419,-3.0442 -23.803,-14.0048 -58.431,-20.3009 -90.1251,-18.2358 -7.3397,-18.2169 -18.8617,-36.1121 -33.0761,-52.1314 41.8585,-4.8959 106.5573,-4.7815 147.0277,0.4098 6.1667,0.7911 11.114,1.6608 15.4551,2.5758 12.9228,2.3515 20.1953,6.7346 20.4896,11.8255 0.3477,2.5533 -1.276,6.8461 -5.2688,12.8499 -10.1098,15.202 -30.99,34.9594 -46.6285,44.1405 -1.1542,0.6776 -2.1036,1.0878 -3.132,1.6099 z"
           style="fill:#b3e589;fill-opacity:1;fill-rule:nonzero;stroke:none"
           transform="matrix(1.3333333,0,0,-1.3333333,0,1440)"
           clip-path="url(#clipPath6-9)" />
      </g>
      <g
         id="g6">
        <path
           id="path7"
           d="m 357.0571,632.7381 c 21.9475,-21.9475 21.9475,-57.5314 0,-79.4789 -21.9476,-21.9475 -57.5315,-21.9475 -79.479,0 -21.9475,21.9475 -21.9475,57.5314 0,79.4789 21.9475,21.9476 57.5314,21.9476 79.479,0 z"
           style="fill:#ffe3e0;fill-opacity:1;fill-rule:nonzero;stroke:none"
           transform="matrix(1.3333333,0,0,-1.3333333,0,1440)"
           clip-path="url(#clipPath8-7)" />
      </g>
      <g
         id="g8">
        <path
           id="path9"
           d="m 802.422,632.7381 c 21.9475,-21.9475 21.9475,-57.5314 0,-79.4789 -21.9476,-21.9475 -57.5315,-21.9475 -79.479,0 -21.9475,21.9475 -21.9475,57.5314 0,79.4789 21.9475,21.9476 57.5314,21.9476 79.479,0 z"
           style="fill:#ffe3e0;fill-opacity:1;fill-rule:nonzero;stroke:none"
           transform="matrix(1.3333333,0,0,-1.3333333,0,1440)"
           clip-path="url(#clipPath10-3)" />
      </g>
      <g
         id="g10">
        <path
           id="path11"
           d="m 449.8164,330.4295 c -2.3249,-11.9721 -0.1474,-24.8049 7.0543,-35.6813 0.3285,-0.4962 0.7099,-0.9255 1.0537,-1.405 0.1409,-0.2146 0.3922,-0.5285 0.5562,-0.761 1.0395,-1.3914 2.1185,-2.7096 3.2783,-3.9516 1.0276,-1.2183 1.5739,-2.0498 2.9564,-3.5418 3.8208,-4.1219 8.6984,-8.8289 13.8744,-13.6402 v -0.322 c 0.0202,-0.0187 0.0382,-0.0396 0.0585,-0.0585 2.7116,-2.5219 5.2833,-5.1815 7.7275,-8.0202 12.9645,-15.0594 21.9226,-33.9793 23.2704,-52.3364 8.7329,-2.7452 19.5394,-4.1045 30.3539,-4.1272 10.8146,0.0227 21.621,1.382 30.3539,4.1272 1.3479,18.3569 10.306,37.277 23.2704,52.3364 2.4442,2.8387 5.0159,5.4983 7.7275,8.0202 0.0203,0.0189 0.0384,0.0398 0.0586,0.0585 v 0.322 c 5.176,4.8113 10.0536,9.5183 13.8744,13.6402 1.3824,1.492 1.9288,2.3235 2.9563,3.5418 1.1597,1.242 2.2388,2.5602 3.2784,3.9516 0.1639,0.2325 0.4153,0.5464 0.5561,0.761 0.3438,0.4795 0.7252,0.9088 1.0538,1.405 7.2017,10.8764 9.3792,23.7092 7.0543,35.6813 -4.6458,-0.9453 -9.3104,-1.8085 -13.9915,-2.6052 -0.3513,-0.0591 -0.7023,-0.1174 -1.0538,-0.1756 -24.7548,-4.1518 -49.9378,-6.2932 -75.1384,-6.2932 -25.2006,0 -50.3836,2.1414 -75.1384,6.2932 -0.3515,0.0582 -0.7024,0.1165 -1.0537,0.1756 -4.6812,0.7967 -9.3458,1.6599 -13.9915,2.6052 z"
           style="fill:#ffffff;fill-opacity:1;fill-rule:nonzero;stroke:none"
           transform="matrix(1.3333333,0,0,-1.3333333,0,1440)"
           clip-path="url(#clipPath12-8)" />
      </g>
      <g
         id="g12">
        <path
           id="path13"
           d="M 523.9303,313.2474 V 291.909 h -21.3092 v -32.1102 h 21.3092 v -21.3092 h 32.1395 v 21.3092 h 21.3092 v 32.1102 h -21.3092 v 21.3384 z"
           style="fill:#ff9300;fill-opacity:1;fill-rule:nonzero;stroke:none"
           transform="matrix(1.3333333,0,0,-1.3333333,0,1440)"
           clip-path="url(#clipPath14-5)" />
      </g>
    </g>
  </g>
</svg>
